//bayimg.com/oANBjaAeF


MOVIE IMBD :http://www.imdb.com/title/tt2203308/




CAST :
Aditya Roy Kapoor as Rahul Jaykar
Shraddha Kapoor as Aarohi Keshav Shirke
Shaad Randhawa as Vivek
Mahesh Thakur as Saigal Uncle
Shubhangi Latkar as Aarohi's Mother
Chitrak Bandhopadyay as Salim Bhai
Mahesh Bhatt as Rahul's Father (voice)
Bugs Bhargava
Salil Acharya as Aryan
Shekhar Shukla
Gagan Gupta
Gaurav Sharma
Ashish Bhatt as Reporter.


Format                                   : Matroska
Format version                           : Version 4 / Version 2
File size                                : 898 MiB
Duration                                 : 2h 12mn
Overall bit rate                         : 947 Kbps
Encoded date                             : UTC 2013-06-18 17:33:47
Writing application                      : mkvmerge v6.0.0 ('Coming Up For Air') built on Jan 20 2013 09:52:00
Writing library                          : libebml v1.3.0 + libmatroska v1.4.0

Video
ID                                       : 1
Format                                   : AVC
Format/Info                              : Advanced Video Codec
Format profile                           : High@L3.1
Format settings, CABAC                   : Yes
Format settings, ReFrames                : 4 frames
Codec ID                                 : V_MPEG4/ISO/AVC
Duration                                 : 2h 12mn
Bit rate                                 : 817 Kbps
Width                                    : 1 280 pixels
Height                                   : 544 pixels
Display aspect ratio                     : 2.35:1
Frame rate mode                          : Constant
Frame rate                               : 24.000 fps
Color space                              : YUV
Chroma subsampling                       : 4:2:0
Bit depth                                : 8 bits
Scan type                                : Progressive
Bits/(Pixel*Frame)                       : 0.049
Stream size                              : 759 MiB (84%)
Writing library                          : x264 core 130 r2273 b3065e6
Encoding settings                        : cabac=1 / ref=3 / deblock=1:0:0 /  
Language                                 : English
Default                                  : Yes
Forced                                   : No



Audio
ID                                       : 2
Format                                   : AC-3
Format/Info                              : Audio Coding 3
Mode extension                           : CM (complete main)
Format settings, Endianness              : Big
Codec ID                                 : A_AC3
Duration                                 : 2h 12mn
Bit rate mode                            : Constant
Bit rate                                 : 128 Kbps
Channel(s)                               : 2 channels
Channel positions                        : Front: L R
Sampling rate                            : 48.0 KHz
Bit depth                                : 16 bits
Compression mode                         : Lossy
Stream size                              : 121 MiB (14%)
Default                                  : Yes
Forced                                   : No



//bayimg.com/oANBeaAeF

//bayimg.com/OANbfAAEF

//bayimg.com/OaNbgaAEF

//bayimg.com/OaNbhAAEF

//bayimg.com/OANBiAaef
